{
    "asset" : {
        "generator" : "Khronos glTF Blender I/O v1.2.75",
        "version" : "2.0"
    },
    "scene" : 0,
    "scenes" : [
        {
            "name" : "Scene",
            "nodes" : [
                3
            ]
        }
    ],
    "nodes" : [
        {
            "mesh" : 0,
            "name" : "node_id31",
            "scale" : [
                35.518001556396484,
                35.518001556396484,
                35.518001556396484
            ],
            "translation" : [
                -7.470655918121338,
                301.6437072753906,
                246.4189453125
            ]
        },
        {
            "mesh" : 1,
            "name" : "node_id33",
            "scale" : [
                35.518001556396484,
                35.518001556396484,
                35.518001556396484
            ],
            "translation" : [
                -7.470655918121338,
                301.6437072753906,
                246.4189453125
            ]
        },
        {
            "children" : [
                0,
                1
            ],
            "name" : "node_id35",
            "scale" : [
                0.0010000000474974513,
                0.0010000000474974513,
                0.0010000000474974513
            ]
        },
        {
            "children" : [
                2
            ],
            "name" : "root",
            "rotation" : [
                0.7071068286895752,
                0,
                0,
                0.7071067094802856
            ],
            "scale" : [
                2.105484962463379,
                2.105484962463379,
                2.105484962463379
            ]
        }
    ],
    "materials" : [
        {
            "doubleSided" : true,
            "emissiveFactor" : [
                0,
                0,
                0
            ],
            "name" : "Material_43",
            "pbrMetallicRoughness" : {
                "baseColorTexture" : {
                    "index" : 0,
                    "texCoord" : 0
                },
                "metallicFactor" : 1,
                "roughnessFactor" : 0
            }
        },
        {
            "doubleSided" : true,
            "emissiveFactor" : [
                0,
                0,
                0
            ],
            "name" : "Material_44",
            "pbrMetallicRoughness" : {
                "baseColorTexture" : {
                    "index" : 1,
                    "texCoord" : 0
                },
                "metallicFactor" : 1,
                "roughnessFactor" : 0
            }
        }
    ],
    "meshes" : [
        {
            "name" : "mesh_id32",
            "primitives" : [
                {
                    "attributes" : {
                        "POSITION" : 0,
                        "NORMAL" : 1,
                        "TEXCOORD_0" : 2
                    },
                    "indices" : 3,
                    "material" : 0
                }
            ]
        },
        {
            "name" : "mesh_id34",
            "primitives" : [
                {
                    "attributes" : {
                        "POSITION" : 4,
                        "NORMAL" : 5,
                        "TEXCOORD_0" : 6
                    },
                    "indices" : 7,
                    "material" : 1
                }
            ]
        }
    ],
    "textures" : [
        {
            "source" : 0
        },
        {
            "source" : 0
        }
    ],
    "images" : [
        {
            "bufferView" : 4,
            "mimeType" : "image/png",
            "name" : "5"
        }
    ],
    "accessors" : [
        {
            "bufferView" : 0,
            "componentType" : 5126,
            "count" : 1821,
            "max" : [
                6.755041122436523,
                8.630951881408691,
                -0.1942582130432129
            ],
            "min" : [
                -6.70118522644043,
                -8.202251434326172,
                -13.597694396972656
            ],
            "type" : "VEC3"
        },
        {
            "bufferView" : 1,
            "componentType" : 5126,
            "count" : 1821,
            "type" : "VEC3"
        },
        {
            "bufferView" : 2,
            "componentType" : 5126,
            "count" : 1821,
            "type" : "VEC2"
        },
        {
            "bufferView" : 3,
            "componentType" : 5123,
            "count" : 9894,
            "type" : "SCALAR"
        },
        {
            "bufferView" : 5,
            "componentType" : 5126,
            "count" : 27558,
            "max" : [
                7.417947769165039,
                8.879161834716797,
                0
            ],
            "min" : [
                -6.997278213500977,
                -8.492698669433594,
                -13.875720977783203
            ],
            "type" : "VEC3"
        },
        {
            "bufferView" : 6,
            "componentType" : 5126,
            "count" : 27558,
            "type" : "VEC3"
        },
        {
            "bufferView" : 7,
            "componentType" : 5126,
            "count" : 27558,
            "type" : "VEC2"
        },
        {
            "bufferView" : 8,
            "componentType" : 5123,
            "count" : 140847,
            "type" : "SCALAR"
        }
    ],
    "bufferViews" : [
        {
            "buffer" : 0,
            "byteLength" : 21852,
            "byteOffset" : 0
        },
        {
            "buffer" : 0,
            "byteLength" : 21852,
            "byteOffset" : 21852
        },
        {
            "buffer" : 0,
            "byteLength" : 14568,
            "byteOffset" : 43704
        },
        {
            "buffer" : 0,
            "byteLength" : 19788,
            "byteOffset" : 58272
        },
        {
            "buffer" : 0,
            "byteLength" : 1260451,
            "byteOffset" : 78060
        },
        {
            "buffer" : 0,
            "byteLength" : 330696,
            "byteOffset" : 1338512
        },
        {
            "buffer" : 0,
            "byteLength" : 330696,
            "byteOffset" : 1669208
        },
        {
            "buffer" : 0,
            "byteLength" : 220464,
            "byteOffset" : 1999904
        },
        {
            "buffer" : 0,
            "byteLength" : 281694,
            "byteOffset" : 2220368
        }
    ],
    "buffers" : [
        {
            "byteLength" : 2502064,
            "uri" : "data:application/octet-stream;base64,"
        }
    ]
}
